<svg xmlns="http://www.w3.org/2000/svg" version="1.1" xmlns:xlink="http://www.w3.org/1999/xlink" xmlns:svgjs="http://svgjs.dev/svgjs" viewBox="0 0 800 800"><defs><linearGradient x1="50%" y1="0%" x2="50%" y2="100%" id="ffflurry-grad" gradientTransform="rotate(270)"><stop stop-color="hsl(238, 82%, 13%)" stop-opacity="1" offset="0%"></stop><stop stop-color="hsl(1.4, 100%, 67%)" stop-opacity="1" offset="45%"></stop><stop stop-color="hsl(167, 52%, 78%)" stop-opacity="1" offset="100%"></stop></linearGradient></defs><rect width="100%" height="100%" fill="hsl(238, 82%, 13%)"></rect><g fill="url(#ffflurry-grad)"><rect width="140" height="3" x="686" y="694.5" rx="1.5" transform="rotate(45, 756, 696)" opacity="0.40"></rect><rect width="379" height="3" x="563.5" y="463.5" rx="1.5" transform="rotate(45, 753, 465)" opacity="0.30"></rect><rect width="431" height="3" x="214.5" y="519.5" rx="1.5" transform="rotate(45, 430, 521)" opacity="0.18"></rect><rect width="306" height="3" x="30" y="64.5" rx="1.5" transform="rotate(45, 183, 66)" opacity="0.86"></rect><rect width="197" height="3" x="274.5" y="457.5" rx="1.5" transform="rotate(45, 373, 459)" opacity="0.41"></rect><rect width="190" height="3" x="-36" y="85.5" rx="1.5" transform="rotate(45, 59, 87)" opacity="0.41"></rect><rect width="109" height="3" x="441.5" y="740.5" rx="1.5" transform="rotate(45, 496, 742)" opacity="0.16"></rect><rect width="231" height="3" x="-94.5" y="705.5" rx="1.5" transform="rotate(45, 21, 707)" opacity="0.64"></rect><rect width="155" height="3" x="216.5" y="409.5" rx="1.5" transform="rotate(45, 294, 411)" opacity="0.08"></rect><rect width="85" height="3" x="578.5" y="417.5" rx="1.5" transform="rotate(45, 621, 419)" opacity="0.33"></rect><rect width="241" height="3" x="348.5" y="213.5" rx="1.5" transform="rotate(45, 469, 215)" opacity="0.56"></rect><rect width="159" height="3" x="-46.5" y="776.5" rx="1.5" transform="rotate(45, 33, 778)" opacity="0.72"></rect><rect width="705" height="3" x="46.5" y="652.5" rx="1.5" transform="rotate(45, 399, 654)" opacity="0.56"></rect><rect width="219" height="3" x="659.5" y="109.5" rx="1.5" transform="rotate(45, 769, 111)" opacity="0.51"></rect><rect width="396" height="3" x="143" y="753.5" rx="1.5" transform="rotate(45, 341, 755)" opacity="0.08"></rect><rect width="248" height="3" x="-16" y="95.5" rx="1.5" transform="rotate(45, 108, 97)" opacity="0.79"></rect><rect width="123" height="3" x="-23.5" y="444.5" rx="1.5" transform="rotate(45, 38, 446)" opacity="0.51"></rect><rect width="56" height="3" x="602" y="74.5" rx="1.5" transform="rotate(45, 630, 76)" opacity="0.84"></rect><rect width="154" height="3" x="687" y="390.5" rx="1.5" transform="rotate(45, 764, 392)" opacity="0.09"></rect><rect width="564" height="3" x="-211" y="655.5" rx="1.5" transform="rotate(45, 71, 657)" opacity="0.83"></rect><rect width="269" height="3" x="374.5" y="21.5" rx="1.5" transform="rotate(45, 509, 23)" opacity="0.48"></rect><rect width="755" height="3" x="370.5" y="562.5" rx="1.5" transform="rotate(45, 748, 564)" opacity="0.25"></rect><rect width="225" height="3" x="-31.5" y="742.5" rx="1.5" transform="rotate(45, 81, 744)" opacity="0.89"></rect><rect width="671" height="3" x="-44.5" y="657.5" rx="1.5" transform="rotate(45, 291, 659)" opacity="0.40"></rect><rect width="268" height="3" x="324" y="136.5" rx="1.5" transform="rotate(45, 458, 138)" opacity="0.73"></rect><rect width="105" height="3" x="100.5" y="140.5" rx="1.5" transform="rotate(45, 153, 142)" opacity="0.92"></rect><rect width="570" height="3" x="-115" y="755.5" rx="1.5" transform="rotate(45, 170, 757)" opacity="0.11"></rect><rect width="492" height="3" x="169" y="55.5" rx="1.5" transform="rotate(45, 415, 57)" opacity="0.38"></rect><rect width="237" height="3" x="452.5" y="667.5" rx="1.5" transform="rotate(45, 571, 669)" opacity="1.00"></rect><rect width="417" height="3" x="116.5" y="52.5" rx="1.5" transform="rotate(45, 325, 54)" opacity="0.79"></rect><rect width="189" height="3" x="348.5" y="293.5" rx="1.5" transform="rotate(45, 443, 295)" opacity="0.76"></rect><rect width="487" height="3" x="-37.5" y="680.5" rx="1.5" transform="rotate(45, 206, 682)" opacity="0.17"></rect><rect width="301" height="3" x="181.5" y="156.5" rx="1.5" transform="rotate(45, 332, 158)" opacity="0.27"></rect><rect width="146" height="3" x="552" y="324.5" rx="1.5" transform="rotate(45, 625, 326)" opacity="0.59"></rect><rect width="716" height="3" x="-307" y="305.5" rx="1.5" transform="rotate(45, 51, 307)" opacity="0.51"></rect><rect width="140" height="3" x="162" y="229.5" rx="1.5" transform="rotate(45, 232, 231)" opacity="0.36"></rect><rect width="146" height="3" x="411" y="411.5" rx="1.5" transform="rotate(45, 484, 413)" opacity="0.18"></rect><rect width="152" height="3" x="39" y="387.5" rx="1.5" transform="rotate(45, 115, 389)" opacity="0.27"></rect><rect width="292" height="3" x="239" y="211.5" rx="1.5" transform="rotate(45, 385, 213)" opacity="0.22"></rect><rect width="173" height="3" x="-63.5" y="121.5" rx="1.5" transform="rotate(45, 23, 123)" opacity="0.61"></rect><rect width="231" height="3" x="419.5" y="343.5" rx="1.5" transform="rotate(45, 535, 345)" opacity="0.79"></rect><rect width="462" height="3" x="17" y="572.5" rx="1.5" transform="rotate(45, 248, 574)" opacity="0.78"></rect><rect width="177" height="3" x="546.5" y="603.5" rx="1.5" transform="rotate(45, 635, 605)" opacity="0.56"></rect><rect width="210" height="3" x="435" y="148.5" rx="1.5" transform="rotate(45, 540, 150)" opacity="0.31"></rect><rect width="588" height="3" x="368" y="742.5" rx="1.5" transform="rotate(45, 662, 744)" opacity="0.21"></rect><rect width="78" height="3" x="240" y="501.5" rx="1.5" transform="rotate(45, 279, 503)" opacity="0.44"></rect><rect width="170" height="3" x="-37" y="186.5" rx="1.5" transform="rotate(45, 48, 188)" opacity="0.42"></rect><rect width="47" height="3" x="504.5" y="484.5" rx="1.5" transform="rotate(45, 528, 486)" opacity="0.27"></rect><rect width="597" height="3" x="-55.5" y="135.5" rx="1.5" transform="rotate(45, 243, 137)" opacity="0.77"></rect><rect width="129" height="3" x="627.5" y="121.5" rx="1.5" transform="rotate(45, 692, 123)" opacity="0.68"></rect><rect width="152" height="3" x="269" y="562.5" rx="1.5" transform="rotate(45, 345, 564)" opacity="0.81"></rect><rect width="260" height="3" x="-109" y="40.5" rx="1.5" transform="rotate(45, 21, 42)" opacity="0.29"></rect><rect width="367" height="3" x="432.5" y="149.5" rx="1.5" transform="rotate(45, 616, 151)" opacity="0.87"></rect><rect width="293" height="3" x="468.5" y="207.5" rx="1.5" transform="rotate(45, 615, 209)" opacity="0.22"></rect><rect width="87" height="3" x="50.5" y="24.5" rx="1.5" transform="rotate(45, 94, 26)" opacity="0.30"></rect><rect width="52" height="3" x="574" y="509.5" rx="1.5" transform="rotate(45, 600, 511)" opacity="0.37"></rect><rect width="160" height="3" x="150" y="27.5" rx="1.5" transform="rotate(45, 230, 29)" opacity="0.08"></rect><rect width="286" height="3" x="44" y="377.5" rx="1.5" transform="rotate(45, 187, 379)" opacity="0.62"></rect><rect width="598" height="3" x="-78" y="322.5" rx="1.5" transform="rotate(45, 221, 324)" opacity="0.93"></rect><rect width="725" height="3" x="-218.5" y="587.5" rx="1.5" transform="rotate(45, 144, 589)" opacity="0.38"></rect><rect width="436" height="3" x="-95" y="488.5" rx="1.5" transform="rotate(45, 123, 490)" opacity="0.50"></rect><rect width="298" height="3" x="344" y="591.5" rx="1.5" transform="rotate(45, 493, 593)" opacity="0.90"></rect><rect width="269" height="3" x="618.5" y="319.5" rx="1.5" transform="rotate(45, 753, 321)" opacity="0.77"></rect><rect width="225" height="3" x="622.5" y="32.5" rx="1.5" transform="rotate(45, 735, 34)" opacity="0.29"></rect><rect width="394" height="3" x="452" y="258.5" rx="1.5" transform="rotate(45, 649, 260)" opacity="0.90"></rect><rect width="136" height="3" x="624" y="369.5" rx="1.5" transform="rotate(45, 692, 371)" opacity="0.70"></rect><rect width="290" height="3" x="594" y="190.5" rx="1.5" transform="rotate(45, 739, 192)" opacity="0.70"></rect><rect width="117" height="3" x="-16.5" y="563.5" rx="1.5" transform="rotate(45, 42, 565)" opacity="1.00"></rect><rect width="173" height="3" x="660.5" y="256.5" rx="1.5" transform="rotate(45, 747, 258)" opacity="0.25"></rect><rect width="358" height="3" x="497" y="512.5" rx="1.5" transform="rotate(45, 676, 514)" opacity="0.71"></rect><rect width="242" height="3" x="479" y="28.5" rx="1.5" transform="rotate(45, 600, 30)" opacity="0.82"></rect><rect width="189" height="3" x="221.5" y="293.5" rx="1.5" transform="rotate(45, 316, 295)" opacity="0.13"></rect><rect width="46" height="3" x="483" y="74.5" rx="1.5" transform="rotate(45, 506, 76)" opacity="0.90"></rect><rect width="525" height="3" x="281.5" y="257.5" rx="1.5" transform="rotate(45, 544, 259)" opacity="0.89"></rect><rect width="124" height="3" x="332" y="364.5" rx="1.5" transform="rotate(45, 394, 366)" opacity="1.00"></rect><rect width="82" height="3" x="89" y="235.5" rx="1.5" transform="rotate(45, 130, 237)" opacity="0.87"></rect><rect width="75" height="3" x="170.5" y="478.5" rx="1.5" transform="rotate(45, 208, 480)" opacity="0.78"></rect></g></svg>